# xmcd CD database file
#
# Track frame offsets:
#	183
#	91498
#	153523
#	217343
#	252263
#	274418
#
# Disc length: 3927 seconds
#
# Revision: 0
# Processed by: cddbd v1.5.1PL0 Copyright (c) Steve Scherf et al.
# Submitted via: CDex 1.50Beta7
#
DISCID=5a0f5506
DTITLE=New Horizons Ensemble - After the dawn has risen
DYEAR=1992
DGENRE=Jazz
TTITLE0=After The Dawn Has Risen
TTITLE1=BHU
TTITLE2=Ode to Beth Williams/Ethiopias Call
TTITLE3=Ah Mandela
TTITLE4=Shorter Suite
TTITLE5=Fat City
EXTD=YEAR: 1992
EXTT0=
EXTT1=
EXTT2=
EXTT3=
EXTT4=
EXTT5=
PLAYORDER=
